<svg xmlns="http://www.w3.org/2000/svg" width="20.93" height="15.93" viewBox="0 0 20.93 15.93"><path d="M18.38,0H2.56A2.56,2.56,0,0,0,0,2.56V13.37a2.56,2.56,0,0,0,2.56,2.56H18.38a2.55,2.55,0,0,0,2.55-2.56V2.56A2.55,2.55,0,0,0,18.38,0Zm1.39,13.37a1.39,1.39,0,0,1-1.39,1.39H2.56a1.39,1.39,0,0,1-1.39-1.39V2.56A1.4,1.4,0,0,1,2.56,1.17H18.38a1.4,1.4,0,0,1,1.38,1.39V13.37Z" fill="#e51c41"/><path d="M13.2,7.83l5.12-4.59a.59.59,0,0,0,0-.83.58.58,0,0,0-.81,0l-7.03,6.3L9.1,7.48h0L9,7.38l-5.6-5a.59.59,0,0,0-.78.88h0L7.79,7.87,2.63,12.7a.59.59,0,0,0,0,.83.64.64,0,0,0,.43.18.59.59,0,0,0,.4-.15L8.7,8.66l1.42,1.27a.58.58,0,0,0,.78,0l1.46-1.31,5.21,4.94a.58.58,0,1,0,.8-.84Z" fill="#e51c41"/></svg>