<svg xmlns="http://www.w3.org/2000/svg" width="17.224" height="17.265" viewBox="0 0 17.224 17.265"><g transform="translate(0.004)"><path d="M13.77,17.26a7.41,7.41,0,0,1-2.55-.54,18.82,18.82,0,0,1-6.34-4.34A18.67,18.67,0,0,1,.54,6c-.73-1.93-.72-3.53,0-4.27l.28-.3A3.59,3.59,0,0,1,3.26,0h.07A2.92,2.92,0,0,1,5.41,1.32c2,2.52,1.06,3.47,0,4.48L5.27,6c-.07.07-.09.3.1.7A12,12,0,0,0,7.7,9.57a16.31,16.31,0,0,0,2.36,2,2.27,2.27,0,0,0,1,.44.22.22,0,0,0,.17,0l.18-.18a2.83,2.83,0,0,1,2-1.15,4.31,4.31,0,0,1,2.5,1.19,2.94,2.94,0,0,1,1.31,2.08,3.42,3.42,0,0,1-1.44,2.45l-.32.31a2.41,2.41,0,0,1-1.69.55ZM3.25.91c-.61,0-1.19.62-1.71,1.17l-.33.33c-.46.47-.4,1.8.18,3.31a17.83,17.83,0,0,0,4.13,6,18,18,0,0,0,6,4.13,6.61,6.61,0,0,0,2.24.48A1.49,1.49,0,0,0,14.85,16l.31-.3c.58-.55,1.21-1.15,1.19-1.77a2.14,2.14,0,0,0-1-1.41,3.46,3.46,0,0,0-1.9-1c-.51,0-.86.37-1.36.87l-.18.18a1.11,1.11,0,0,1-.81.32,2.93,2.93,0,0,1-1.55-.59,16.65,16.65,0,0,1-2.52-2.15c-2.52-2.53-3.27-4-2.42-4.88l.18-.18c.93-.92,1.4-1.38-.11-3.26a2.19,2.19,0,0,0-1.41-1V.66Z" fill="#e51c41"/></g></svg>